<?xml version="1.0" encoding="UTF-8"?>
<svg width="2100px" height="815px" viewBox="0 0 2100 815" version="1.1" xmlns="http://www.w3.org/2000/svg" xmlns:xlink="http://www.w3.org/1999/xlink">
    <!-- Generator: Sketch 47.1 (45422) - http://www.bohemiancoding.com/sketch -->
    <title>Artboard</title>
    <desc>Created with Sketch.</desc>
    <defs></defs>
    <g id="Page-1" stroke="none" stroke-width="1" fill="none" fill-rule="evenodd">
        <g id="Artboard">
            <g id="react" transform="translate(64.000000, 199.000000)" fill-rule="nonzero" fill="#61DAFB">
                <path d="M499.288618,222 C499.288618,188.979405 457.926829,157.686041 394.512195,138.280092 C409.146341,73.6613272 402.642276,22.2508009 373.98374,5.79130435 C367.378049,1.93043478 359.654472,0.101601831 351.219512,0.101601831 L351.219512,22.7588101 C355.894309,22.7588101 359.654472,23.6732265 362.804878,25.4004577 C376.626016,33.3254005 382.621951,63.5011442 377.947154,102.313043 C376.829268,111.863616 375,121.922197 372.764228,132.183982 C352.845528,127.307094 331.097561,123.547826 308.231707,121.109382 C294.512195,102.313043 280.284553,85.2439359 265.955285,70.3084668 C299.085366,39.5231121 330.182927,22.6572082 351.321138,22.6572082 L351.321138,0 C323.373984,0 286.788618,19.9139588 249.796748,54.4585812 C212.804878,20.1171625 176.219512,0.406407323 148.272358,0.406407323 L148.272358,23.0636156 C169.308943,23.0636156 200.50813,39.8279176 233.638211,70.4100686 C219.410569,85.3455378 205.182927,102.313043 191.666667,121.109382 C168.699187,123.547826 146.95122,127.307094 127.03252,132.285584 C124.695122,122.1254 122.96748,112.270023 121.747967,102.821053 C116.971545,64.0091533 122.865854,33.8334096 136.585366,25.806865 C139.634146,23.978032 143.597561,23.1652174 148.272358,23.1652174 L148.272358,0.508009153 C139.735772,0.508009153 132.012195,2.33684211 125.304878,6.19771167 C96.7479675,22.6572082 90.3455285,73.9661327 105.081301,138.381693 C41.8699187,157.889245 0.711382114,189.081007 0.711382114,222 C0.711382114,255.020595 42.0731707,286.313959 105.487805,305.719908 C90.8536585,370.338673 97.3577236,421.749199 126.01626,438.208696 C132.621951,442.069565 140.345528,443.898398 148.882114,443.898398 C176.829268,443.898398 213.414634,423.984439 250.406504,389.439817 C287.398374,423.781236 323.98374,443.491991 351.930894,443.491991 C360.46748,443.491991 368.191057,441.663158 374.898374,437.802288 C403.455285,421.342792 409.857724,370.033867 395.121951,305.618307 C458.130081,286.212357 499.288618,254.918993 499.288618,222 L499.288618,222 Z M366.971545,154.231579 C363.211382,167.338215 358.536585,180.851259 353.252033,194.364302 C349.085366,186.236156 344.715447,178.108009 339.939024,169.979863 C335.264228,161.851716 330.284553,153.926773 325.304878,146.205034 C339.735772,148.338673 353.658537,150.98032 366.971545,154.231579 Z M320.426829,262.437529 C312.5,276.153776 304.369919,289.15881 295.934959,301.249428 C280.792683,302.570252 265.447154,303.281465 250,303.281465 C234.654472,303.281465 219.308943,302.570252 204.268293,301.35103 C195.833333,289.260412 187.601626,276.356979 179.674797,262.742334 C171.95122,249.432494 164.939024,235.919451 158.536585,222.304805 C164.837398,208.69016 171.95122,195.075515 179.573171,181.765675 C187.5,168.049428 195.630081,155.044394 204.065041,142.953776 C219.207317,141.632952 234.552846,140.921739 250,140.921739 C265.345528,140.921739 280.691057,141.632952 295.731707,142.852174 C304.166667,154.942792 312.398374,167.846224 320.325203,181.46087 C328.04878,194.770709 335.060976,208.283753 341.463415,221.898398 C335.060976,235.513043 328.04878,249.127689 320.426829,262.437529 Z M353.252033,249.229291 C358.739837,262.843936 363.414634,276.458581 367.276423,289.666819 C353.963415,292.918078 339.939024,295.661327 325.406504,297.794966 C330.386179,289.971625 335.365854,281.94508 340.04065,273.715332 C344.715447,265.587185 349.085366,257.357437 353.252033,249.229291 Z M250.203252,357.638444 C240.752033,347.884668 231.300813,337.013272 221.95122,325.125858 C231.097561,325.532265 240.447154,325.837071 249.898374,325.837071 C259.45122,325.837071 268.902439,325.633867 278.150407,325.125858 C269.004065,337.013272 259.552846,347.884668 250.203252,357.638444 Z M174.593496,297.794966 C160.162602,295.661327 146.239837,293.01968 132.926829,289.768421 C136.686992,276.661785 141.361789,263.148741 146.646341,249.635698 C150.813008,257.763844 155.182927,265.891991 159.95935,274.020137 C164.735772,282.148284 169.613821,290.073227 174.593496,297.794966 Z M249.695122,86.3615561 C259.146341,96.1153318 268.597561,106.986728 277.947154,118.874142 C268.800813,118.467735 259.45122,118.162929 250,118.162929 C240.447154,118.162929 230.995935,118.366133 221.747967,118.874142 C230.894309,106.986728 240.345528,96.1153318 249.695122,86.3615561 Z M174.49187,146.205034 C169.512195,154.028375 164.53252,162.05492 159.857724,170.284668 C155.182927,178.412815 150.813008,186.540961 146.646341,194.669108 C141.158537,181.054462 136.48374,167.439817 132.621951,154.231579 C145.934959,151.081922 159.95935,148.338673 174.49187,146.205034 Z M82.5203252,273.410526 C46.5447154,258.06865 23.2723577,237.951487 23.2723577,222 C23.2723577,206.048513 46.5447154,185.829748 82.5203252,170.589474 C91.2601626,166.830206 100.813008,163.477346 110.670732,160.327689 C116.463415,180.241648 124.085366,200.968421 133.536585,222.203204 C124.186992,243.336384 116.666667,263.961556 110.97561,283.773913 C100.914634,280.624256 91.3617886,277.169794 82.5203252,273.410526 Z M137.195122,418.599542 C123.373984,410.6746 117.378049,380.498856 122.052846,341.686957 C123.170732,332.136384 125,322.077803 127.235772,311.816018 C147.154472,316.692906 168.902439,320.452174 191.768293,322.890618 C205.487805,341.686957 219.715447,358.756064 234.044715,373.691533 C200.914634,404.476888 169.817073,421.342792 148.678862,421.342792 C144.105691,421.24119 140.243902,420.326773 137.195122,418.599542 L137.195122,418.599542 Z M378.252033,341.178947 C383.028455,379.990847 377.134146,410.16659 363.414634,418.193135 C360.365854,420.021968 356.402439,420.834783 351.727642,420.834783 C330.691057,420.834783 299.49187,404.070481 266.361789,373.48833 C280.589431,358.55286 294.817073,341.585355 308.333333,322.789016 C331.300813,320.350572 353.04878,316.591304 372.96748,311.612815 C375.304878,321.8746 377.134146,331.729977 378.252033,341.178947 L378.252033,341.178947 Z M417.378049,273.410526 C408.638211,277.169794 399.085366,280.522654 389.227642,283.672311 C383.434959,263.758352 375.813008,243.031579 366.361789,221.796796 C375.711382,200.663616 383.231707,180.038444 388.922764,160.226087 C398.98374,163.375744 408.536585,166.830206 417.479675,170.589474 C453.455285,185.93135 476.727642,206.048513 476.727642,222 C476.626016,237.951487 453.353659,258.170252 417.378049,273.410526 L417.378049,273.410526 Z" id="Shape"></path>
                <ellipse id="Oval" cx="249.898374" cy="222" rx="46.4430894" ry="46.4320366"></ellipse>
            </g>
            <g id="kube" transform="translate(1552.000000, 199.000000)" fill-rule="nonzero">
                <path d="M248.217309,0.751843972 C243.810654,0.973829249 239.493067,2.06641228 235.517841,3.96549645 L62.2244013,86.7669149 C53.1386253,91.1060163 46.5393257,99.3123147 44.2944367,109.063014 L1.54177716,295.055922 C-0.452734219,303.713643 1.17015323,312.803411 6.04089064,320.25539 C6.62546726,321.157089 7.25417391,322.029882 7.92475589,322.870638 L127.871564,472.006277 C134.160897,479.823516 143.696724,484.375262 153.780252,484.373298 L346.133976,484.328972 C356.213732,484.336318 365.748887,479.793049 372.042664,471.984113 L491.945146,322.826312 C498.237844,315.005155 500.595518,304.76681 498.350288,295.011596 L455.531139,109.018688 C453.28625,99.2679884 446.68695,91.0616901 437.601174,86.7225887 L264.285571,3.96549645 C259.285336,1.5765992 253.760223,0.471576746 248.217309,0.751843972 Z" id="path3055" fill="#326CE5"></path>
                <path d="M249.934444,64.0476738 C244.206103,64.0482553 239.561423,69.2078936 239.562103,75.5724965 C239.56211,75.6701773 239.582103,75.7635177 239.584231,75.860617 C239.575791,76.7254113 239.534018,77.7672553 239.562103,78.5201915 C239.698713,82.1911135 240.498912,85.0006809 240.980543,88.3827801 C241.853082,95.6215461 242.58421,101.622043 242.133025,107.19927 C241.694238,109.30239 240.145167,111.225801 238.764231,112.562745 L238.520437,116.951043 C232.295742,117.466766 226.029408,118.411142 219.770437,119.832248 C192.838089,125.94727 169.649813,139.820241 151.995614,158.55122 C150.850068,157.769709 148.845947,156.331972 148.250011,155.891645 C146.398118,156.14173 144.526458,156.713128 142.088664,155.293241 C137.446884,152.168681 133.219252,147.855702 128.103735,142.660262 C125.759777,140.175021 124.062373,137.808482 121.277493,135.412922 C120.645068,134.868901 119.679919,134.133099 118.972529,133.573383 C116.795309,131.837518 114.227352,130.932234 111.747352,130.847319 C108.558777,130.738142 105.489238,131.984801 103.480508,134.504234 C99.9094367,138.983227 101.052763,145.829092 106.029267,149.796787 C106.079763,149.837 106.133536,149.868262 106.184408,149.907603 C106.868252,150.461943 107.705657,151.172234 108.334231,151.636326 C111.289458,153.818277 113.988983,154.935227 116.933522,156.667355 C123.137068,160.498426 128.279884,163.675057 132.359054,167.505121 C133.951976,169.203113 134.230387,172.195135 134.442387,173.489163 L137.766855,176.459021 C119.970103,203.241773 111.733621,236.323887 116.60111,270.031716 L112.257139,271.295014 C111.112245,272.773461 109.494437,275.099794 107.802316,275.794128 C102.465345,277.475128 96.4588835,278.092418 89.207458,278.852638 C85.8029828,279.135723 82.8654864,278.966787 79.2562169,279.650511 C78.4618339,279.800993 77.354997,280.089355 76.4858268,280.293241 C76.455614,280.299624 76.4273871,280.30856 76.3971743,280.315369 C76.3497984,280.326362 76.2875573,280.34934 76.2420325,280.359695 C70.128458,281.836851 66.2010821,287.456149 67.4654367,292.992674 C68.7300892,298.530496 74.7017062,301.898184 80.8519616,300.572461 C80.8963587,300.562319 80.9608268,300.560617 81.0071034,300.550333 C81.076536,300.534447 81.1376637,300.500759 81.2065715,300.483879 C82.0639119,300.295681 83.1383233,300.086291 83.8883091,299.885475 C87.4367772,298.935383 90.0067062,297.539404 93.1968197,296.317213 C100.059898,293.855674 105.744146,291.799326 111.281926,290.998064 C113.59482,290.816915 116.03165,292.425128 117.243806,293.10356 L121.765082,292.327851 C132.169465,324.58517 153.973706,350.657652 181.583345,367.017567 L179.699479,371.538844 C180.378501,373.294461 181.12743,375.669837 180.621621,377.40361 C178.608373,382.624319 175.15994,388.134794 171.233167,394.278206 C169.331855,397.116447 167.385983,399.319064 165.670224,402.567213 C165.259657,403.34444 164.736763,404.538362 164.340437,405.359766 C161.674593,411.063567 163.630054,417.632957 168.750898,420.098241 C173.903912,422.579007 180.300167,419.962539 183.068274,414.247177 C183.072529,414.239092 183.086501,414.233135 183.090401,414.22505 C183.093238,414.218667 183.087564,414.209092 183.090401,414.202922 C183.484678,413.392603 184.043259,412.327482 184.375862,411.565511 C185.845458,408.19883 186.334451,405.313695 187.367884,402.057532 C190.112295,395.163816 191.620132,387.93056 195.398082,383.423411 C196.432607,382.189206 198.119224,381.714546 199.867884,381.246362 L202.217174,376.991043 C226.286848,386.229908 253.22899,388.709099 280.142706,382.598312 C286.282401,381.204291 292.209685,379.400121 297.939692,377.234837 C298.599962,378.405993 299.827018,380.657319 300.156004,381.224199 C301.933018,381.80234 303.872628,382.100894 305.45299,384.437851 C308.279508,389.266915 310.212493,394.979809 312.567352,401.880227 C313.600954,405.136333 314.111763,408.021596 315.581536,411.388206 C315.916529,412.155546 316.472316,413.235624 316.866997,414.04778 C319.629281,419.781709 326.045806,422.407121 331.206536,419.921007 C336.326749,417.454411 338.284366,410.885617 335.616997,405.182532 C335.220621,404.361156 334.67565,403.167184 334.265047,402.389979 C332.549118,399.141922 330.603557,396.96127 328.702103,394.123135 C324.775004,387.979929 321.517933,382.876539 319.504408,377.655936 C318.662486,374.963333 319.646451,373.288745 320.302281,371.538915 C319.909529,371.088723 319.069082,368.545943 318.573557,367.350085 C347.266749,350.408128 368.430692,323.363355 378.369657,292.128454 C379.711784,292.33939 382.044508,292.752113 382.802281,292.904163 C384.362238,291.875298 385.796564,290.532872 388.609018,290.75434 C394.146834,291.555312 399.830919,293.612305 406.694125,296.073489 C409.884302,297.295518 412.454125,298.714007 416.002635,299.663915 C416.752628,299.864688 417.827018,300.052 418.684373,300.240156 C418.753309,300.257035 418.814373,300.290794 418.883841,300.30661 C418.930153,300.316965 418.994586,300.318596 419.038983,300.328738 C425.189593,301.652816 431.162274,298.287099 432.425508,292.74895 C433.688444,287.212099 429.762884,281.591496 423.648912,280.115972 C422.7596,279.913752 421.49838,279.570312 420.634728,279.406752 C417.025423,278.72322 414.087976,278.891787 410.683486,278.608879 C403.432025,277.849035 397.425685,277.231085 392.088628,275.550369 C389.912557,274.706199 388.364493,272.116865 387.611642,271.051255 L383.422813,269.832284 C385.594628,254.119929 385.009018,237.767504 381.250827,221.405865 C377.457642,204.891887 370.75411,189.788248 361.81377,176.48122 C362.888274,175.504418 364.917451,173.707525 365.492848,173.178915 C365.661047,171.317801 365.516536,169.366482 367.443203,167.305688 C371.522167,163.475411 376.665394,160.299319 382.868735,156.467922 C385.813181,154.735638 388.535075,153.619 391.490189,151.436894 C392.158451,150.943447 393.070969,150.162007 393.77299,149.597355 C398.748437,145.628326 399.893969,138.782872 396.321749,134.304801 C392.749529,129.82673 385.827337,129.404922 380.851891,133.37395 C380.143692,133.934837 379.18272,134.666518 378.546926,135.213489 C375.762174,137.609206 374.042352,139.975468 371.698522,142.46083 C366.583281,147.656539 362.35521,151.991163 357.713593,155.115972 C355.702238,156.286936 352.756174,155.881773 351.419231,155.803028 L347.474196,158.617745 C324.978593,135.028688 294.350323,119.947206 261.370614,117.017532 C261.278373,115.635461 261.157529,113.13727 261.12682,112.38544 C259.776671,111.093489 258.145671,109.990504 257.735862,107.19927 C257.284678,101.622043 258.037969,95.6215461 258.910508,88.3827801 C259.392139,85.0006809 260.192337,82.1911135 260.328947,78.5201915 C260.360011,77.6857021 260.310153,76.4747943 260.30682,75.5724965 C260.306139,69.2078936 255.66282,64.0470922 249.934479,64.0476738 L249.934444,64.0476738 Z M236.946855,144.499801 L233.866181,198.910262 L233.64455,199.021078 C233.437926,203.888702 229.431813,207.775511 224.513345,207.775511 C222.498586,207.775511 220.638919,207.128496 219.127706,206.024624 L219.039054,206.06895 L174.424692,174.442177 C188.136501,160.959092 205.674983,150.995092 225.887458,146.40583 C229.57965,145.567511 233.270196,144.945475 236.946855,144.499801 Z M262.944196,144.499801 C286.542401,147.402156 308.366189,158.087617 325.089586,174.46434 L280.763345,205.891645 L280.608203,205.825191 C276.673841,208.69873 271.130593,207.985752 268.063876,204.140794 C266.807621,202.565645 266.148472,200.713567 266.069196,198.843809 L266.024869,198.821681 L262.944196,144.499801 Z M158.245614,194.765759 L198.98143,231.201929 L198.937103,231.42356 C202.613962,234.619993 203.156167,240.16678 200.089586,244.012213 C198.833415,245.587426 197.15194,246.643943 195.346678,247.137213 L195.302352,247.314518 L143.08604,262.38544 C140.428394,238.083901 146.155933,214.460872 158.245614,194.765759 Z M341.335153,194.787887 C347.387706,204.598213 351.971004,215.555362 354.699515,227.434163 C357.395302,239.170532 358.071848,250.885915 356.960153,262.208099 L304.477884,247.092851 L304.433557,246.87122 C299.733912,245.586794 296.845664,240.806241 297.939763,236.011291 C298.388011,234.047021 299.430699,232.385305 300.843132,231.157567 L300.821004,231.046752 L341.335189,194.787887 L341.335153,194.787887 Z M241.578947,234.01661 L258.267777,234.01661 L268.640118,246.982035 L264.916713,263.161113 L249.934444,270.364128 L234.907848,263.13895 L231.184444,246.959872 L241.578947,234.01661 Z M295.08072,278.387177 C295.789919,278.351362 296.496025,278.415262 297.186217,278.542319 L297.274869,278.431504 L351.286394,287.562709 C343.381784,309.770582 328.256032,329.009645 308.046146,341.884518 L287.079834,291.241787 L287.146288,291.153135 C285.220323,286.677965 287.147706,281.430043 291.578912,279.295865 C292.713415,278.749475 293.898692,278.446922 295.080685,278.387177 L295.08072,278.387177 Z M204.367068,278.608809 C208.488869,278.66661 212.185947,281.527426 213.143664,285.72317 C213.592025,287.687411 213.373806,289.633631 212.633912,291.352603 L212.789054,291.552071 L192.044373,341.68505 C172.649224,329.239234 157.200919,310.604177 148.937103,287.74005 L202.483203,278.65317 L202.571855,278.763986 C203.170798,278.653766 203.778238,278.600582 204.367068,278.608844 L204.367068,278.608809 Z M249.601997,300.572496 C251.037777,300.51973 252.494657,300.814326 253.879479,301.481184 C255.694735,302.355319 257.097018,303.731674 257.979657,305.381894 L258.179125,305.381894 L284.575401,353.076929 C281.149664,354.225319 277.62782,355.206773 274.025756,356.024624 C253.838146,360.608241 233.714678,359.219426 215.492954,353.01044 L241.822742,305.404057 L241.867068,305.404057 C243.446976,302.450574 246.443288,300.688546 249.601997,300.572496 Z" id="path3059" stroke="#FFFFFF" stroke-width="0.25" fill="#FFFFFF"></path>
            </g>
            <g id="expressjs" transform="translate(801.000000, 276.000000)" fill-rule="nonzero" fill="#FFFFFF">
                <path d="M497.690476,281.492063 C479.595238,286.095238 468.404762,281.690476 458.365079,266.611111 C435.825397,232.84127 410.944444,200.619048 386.936508,167.801587 C383.84127,163.555556 380.626984,159.388889 376.619048,154.111111 C348.206349,192.444444 319.833333,228.952381 293.206349,266.928571 C283.68254,280.5 273.68254,286.412698 255.904762,281.611111 L362.730159,138.238095 L263.285714,8.75396825 C280.388889,5.42063492 292.214286,7.12698413 302.690476,22.4444444 C325.825397,56.2539683 351.34127,88.4365079 376.777778,122.484127 C402.373016,88.5555556 427.571429,56.3333333 451.380952,22.8412698 C460.944444,9.26984127 471.222222,4.11111111 488.404762,9.11111111 C475.388889,26.3730159 462.650794,43.3571429 449.833333,60.2222222 C432.531746,82.9603175 415.547619,105.97619 397.611111,128.238095 C391.222222,136.174603 392.253968,141.333333 397.968254,148.833333 C431.142857,192.444444 463.920635,236.492063 497.690476,281.492063 Z" id="Shape"></path>
                <path d="M0.30952381,135.857143 C3.16666667,121.531746 5.07142857,106.928571 9.03968254,92.8809524 C32.8492063,7.84126984 130.468254,-27.515873 197.531746,25.1825397 C236.81746,56.0952381 246.579365,99.6666667 244.634921,148.793651 L23.2063492,148.793651 C19.8730159,236.928571 83.3253968,290.142857 164.198413,263 C192.571429,253.47619 209.277778,231.253968 217.650794,203.47619 C221.896825,189.547619 228.920635,187.365079 242.015873,191.333333 C235.309524,226.095238 220.111111,255.142857 188.365079,273.31746 C140.746032,300.539683 72.7698413,291.730159 37.015873,253.912698 C15.9047619,231.690476 6.93650794,204.031746 2.96825397,174.150794 C2.37301587,169.388889 1.14285714,164.706349 0.19047619,159.984127 C0.26984127,151.941799 0.30952381,143.899471 0.30952381,135.857143 Z M23.6031746,129.944444 L223.722222,129.944444 C222.412698,66.2142857 182.730159,20.9365079 128.484127,20.5396825 C68.9603175,20.0634921 26.1825397,64.2698413 23.6031746,129.944444 Z" id="Shape"></path>
            </g>
            <polygon id="+" fill="#FFFFFF" points="651 430.9 667.7 430.9 667.7 412.4 681.3 412.4 681.3 430.9 698 430.9 698 443.4 681.3 443.4 681.3 461.9 667.7 461.9 667.7 443.4 651 443.4"></polygon>
            <polygon id="+" fill="#FFFFFF" points="1402 430.9 1418.7 430.9 1418.7 412.4 1432.3 412.4 1432.3 430.9 1449 430.9 1449 443.4 1432.3 443.4 1432.3 461.9 1418.7 461.9 1418.7 443.4 1402 443.4"></polygon>
        </g>
    </g>
</svg>
